
    <svg
      width="70"
      height="72"
      viewBox="0 0 70 72"
      fill="none"
      xmlns="http://www.w3.org/2000/svg"
    >
      <g clipPath="url(#clip0_606_233)">
        <path
          d="M35.0617 71.9916C54.1529 71.9916 69.6296 55.988 69.6296 36.2469C69.6296 16.5056 54.1529 0.502197 35.0617 0.502197C15.9704 0.502197 0.493835 16.5056 0.493835 36.2469C0.493835 55.988 15.9704 71.9916 35.0617 71.9916Z"
          fill="#E1E3C2"
        />
        <path
          d="M11.5058 18.1392L13.7316 56.0608C13.726 57.6199 17.4303 58.9407 22.0142 59.0083C26.5981 59.0755 30.3334 57.8534 30.3437 56.2927L30.3554 56.2895L32.3502 18.4269L11.5058 18.1392Z"
          fill="#F9F2E8"
        />
        <path
          d="M33.0934 19.3035C33.1124 16.8258 28.1069 14.7416 21.9127 14.6483C15.7185 14.5549 10.6814 16.4877 10.662 18.9654C10.6427 21.443 15.6484 23.5272 21.8426 23.6206C28.0368 23.714 33.0741 21.7811 33.0934 19.3035Z"
          fill="#42331D"
        />
        <path
          d="M32.2234 16.0062C32.24 13.7028 27.5868 11.7712 21.8307 11.6917C16.0746 11.6123 11.395 13.4152 11.3785 15.7185C11.362 18.0219 16.015 19.9535 21.7711 20.033C27.5272 20.1124 32.2068 18.3095 32.2234 16.0062Z"
          fill="#42331D"
        />
        <path
          d="M33.0554 18.9094L10.7068 18.387L11.4532 15.2754L32.2244 15.9011L33.0554 18.9094Z"
          fill="#42331D"
        />
        <path
          d="M30.9623 15.7927C30.9761 13.842 26.9522 12.205 21.9746 12.1363C16.997 12.0676 12.9505 13.5933 12.9365 15.5439C12.9226 17.4946 16.9465 19.1317 21.9241 19.2003C26.9018 19.269 30.9481 17.7434 30.9623 15.7927Z"
          fill="#5E574E"
        />
        <path
          d="M23.2887 18.1767C23.2905 17.9306 22.6844 17.7226 21.935 17.7123C21.1856 17.702 20.5766 17.8931 20.5748 18.1393C20.5731 18.3854 21.1792 18.5933 21.9286 18.6036C22.678 18.614 23.287 18.4228 23.2887 18.1767Z"
          fill="#C1B5AA"
        />
        <path
          d="M12.1502 31.4526C15.306 32.5835 18.549 33.176 21.8078 33.2172C25.1704 33.1694 28.2846 32.8839 31.578 31.9397L30.9751 44.51C30.9751 44.51 27.8537 45.849 21.7089 45.7678C15.5641 45.687 12.5491 43.9784 12.5491 43.9784L12.1502 31.4526Z"
          fill="#D1A66A"
        />
        <path
          opacity="0.4"
          d="M22.4798 40.3828C23.8883 38.0523 28.4894 26.5464 29.3815 20.2837L28.1138 39.0721C25.156 40.3828 23.0432 40.3828 22.4798 40.3828Z"
          fill="#BDAB92"
        />
        <path
          d="M39.6956 30.8274L63.3891 44.0549L23.9634 42.0897L39.6956 30.8274Z"
          fill="#5F3D16"
        />
        <path
          d="M23.7147 44.932L62.9044 46.9677L63.3891 44.0545L23.9633 42.0896L23.7147 44.932Z"
          fill="#4C3016"
        />
        <path
          d="M23.3037 49.7078L62.1287 51.7227L62.6106 48.8085L23.5506 46.8618L23.3037 49.7078Z"
          fill="#4C3016"
        />
        <path
          d="M23.5025 47.3594L62.4962 49.3833L62.9497 46.6939L23.752 44.5142L23.5025 47.3594Z"
          fill="#372413"
        />
        <path
          d="M22.8308 54.3729L61.3568 56.3728L61.838 53.4614L23.0802 51.5276L22.8308 54.3729Z"
          fill="#4C3016"
        />
        <path
          d="M23.0322 52.0256L61.7243 54.0333L62.1751 51.3432L23.2791 49.1792L23.0322 52.0256Z"
          fill="#372413"
        />
        <path
          d="M38.345 33.9376C37.656 33.8511 37.1735 33.6776 37.3152 32.5884C37.4981 31.2401 39.4629 29.6108 39.4629 29.6108L39.5027 29.6694C39.2728 30.0025 37.9775 31.9204 38.0809 33.1379C38.0868 33.4325 38.1798 33.7144 38.345 33.9376Z"
          fill="#7F6656"
        />
        <path
          d="M40.7454 33.0059C40.7267 33.323 40.6116 33.6248 40.4194 33.859C40.1788 34.0985 39.829 34.1146 39.4207 34.0688C39.2441 34.0474 39.0588 34.0166 38.878 33.9998C38.6976 33.9834 38.5133 33.9594 38.3339 33.9373C38.1697 33.7137 38.0774 33.4321 38.0726 33.1382C37.9692 31.9207 39.2628 30.0086 39.494 29.6697C39.744 30.0148 40.9189 31.7925 40.7454 33.0059Z"
          fill="#9B816F"
        />
        <path
          d="M36.6729 35.2102C35.983 35.1266 35.5004 34.9532 35.6425 33.8641C35.8226 32.5148 37.7871 30.8855 37.7871 30.8855L37.8296 30.9449C37.598 31.2742 36.302 33.1951 36.4088 34.4106C36.413 34.7055 36.5063 34.9879 36.6729 35.2102Z"
          fill="#7F6656"
        />
        <path
          d="M39.0802 34.2938C39.0623 34.6112 38.9468 34.9133 38.7539 35.1467C38.5161 35.3872 38.1673 35.4005 37.7563 35.3536L37.2136 35.285C37.0286 35.2639 36.8506 35.2482 36.6698 35.2221C36.5053 34.9994 36.414 34.7177 36.4109 34.4243C36.3041 33.2087 37.5983 31.2937 37.8317 30.9585C38.0678 31.3022 39.2451 33.0808 39.0802 34.2938Z"
          fill="#9B816F"
        />
        <path
          d="M34.3807 36.937C33.6431 36.8437 33.1273 36.6585 33.2832 35.4972C33.4768 34.0499 35.572 32.3042 35.572 32.3042L35.6162 32.3674C35.3694 32.7205 33.9832 34.7748 34.0962 36.0788C34.1014 36.3955 34.2017 36.6982 34.3807 36.937Z"
          fill="#7F6656"
        />
        <path
          d="M36.9619 35.9512C36.9419 36.2904 36.8174 36.6131 36.6111 36.863C36.3511 37.1314 35.975 37.1318 35.5436 37.0882C35.3559 37.066 35.1571 37.0339 34.948 37.0078L34.3783 36.9459C34.2027 36.7068 34.1052 36.4048 34.1018 36.0902C33.9887 34.7862 35.3749 32.732 35.6217 32.3789C35.8782 32.7393 37.1393 34.6425 36.9619 35.9512Z"
          fill="#9B816F"
        />
        <path
          d="M32.1625 38.6503C31.4138 38.5566 30.8876 38.368 31.047 37.1852C31.2451 35.72 33.381 33.95 33.381 33.95L33.4253 34.0131C33.1736 34.3741 31.7646 36.4592 31.8815 37.7807C31.8842 38.1006 31.9835 38.4076 32.1625 38.6503Z"
          fill="#7F6656"
        />
        <path
          d="M34.7945 37.6429C34.7727 37.9875 34.6473 38.3149 34.4395 38.5698C34.1764 38.8403 33.801 38.8475 33.3548 38.7957L32.7509 38.7156L32.1729 38.6538C31.9938 38.4107 31.8946 38.104 31.8919 37.7841C31.7761 36.4594 33.1864 34.3687 33.4357 34.0166C33.6915 34.3894 34.9715 36.325 34.7945 37.6429Z"
          fill="#9B816F"
        />
        <path
          d="M30.0559 40.1738C29.2875 40.0798 28.7331 39.8818 28.9117 38.67C29.1128 37.1641 31.3077 35.3433 31.3077 35.3433L31.3536 35.4101C31.0968 35.779 29.6497 37.9215 29.7668 39.282C29.7709 39.6097 29.8728 39.9243 30.0559 40.1738Z"
          fill="#7F6656"
        />
        <path
          d="M32.7471 39.1351C32.7263 39.4893 32.5974 39.8264 32.382 40.0873C32.1131 40.3686 31.7249 40.3719 31.2679 40.3193C31.0716 40.2975 30.8645 40.2657 30.6478 40.2367L30.0534 40.1731C29.8703 39.9236 29.7684 39.6091 29.7643 39.2813C29.6471 37.9208 31.0944 35.7783 31.3509 35.4094C31.6157 35.7915 32.9254 37.7918 32.7471 39.1351Z"
          fill="#9B816F"
        />
        <path
          d="M27.7528 41.5757C26.9383 41.4753 26.3584 41.2687 26.5316 39.9747C26.7485 38.3716 29.0822 36.4338 29.0822 36.4338L29.1325 36.5057C28.8583 36.8974 27.3166 39.1783 27.4298 40.6238C27.4374 40.9759 27.5514 41.3123 27.7528 41.5757Z"
          fill="#7F6656"
        />
        <path
          d="M30.6166 40.4703C30.5959 40.8481 30.4584 41.2077 30.2287 41.4855C29.9413 41.7828 29.5301 41.7879 29.0397 41.7239C28.8299 41.7006 28.6097 41.6645 28.3786 41.6374C28.1475 41.6102 27.9446 41.5923 27.7493 41.568C27.5578 41.3028 27.4521 40.9704 27.4494 40.624C27.3234 39.1742 28.865 36.8933 29.1521 36.5059C29.4112 36.9184 30.8109 39.0294 30.6166 40.4703Z"
          fill="#9B816F"
        />
      </g>
      <defs>
        <clipPath id="clip0_606_233">
          <rect width="70" height="72" fill="white" />
        </clipPath>
      </defs>
    </svg>
